<?xml version="1.0" standalone="no"?>
<!DOCTYPE svg PUBLIC "-//W3C//DTD SVG 20010904//EN"
 "http://www.w3.org/TR/2001/REC-SVG-20010904/DTD/svg10.dtd">
<svg version="1.0" xmlns="http://www.w3.org/2000/svg"
 width="300.000000pt" height="249.000000pt" viewBox="0 0 300.000000 249.000000"
 preserveAspectRatio="xMidYMid meet">
<metadata>
Created by potrace 1.10, written by Peter Selinger 2001-2011
</metadata>
<g transform="translate(0.000000,249.000000) scale(0.100000,-0.100000)"
fill="#000000" stroke="none">
<path d="M973 2203 c-44 -30 -16 -95 47 -110 51 -12 143 -68 180 -110 39 -44
80 -120 80 -148 0 -8 -29 -43 -63 -78 -106 -105 -152 -223 -182 -467 -28 -218
-48 -258 -187 -370 -91 -74 -103 -94 -78 -141 23 -43 113 -4 219 94 22 20 45
37 50 37 11 0 12 -4 36 -110 21 -89 75 -211 139 -309 94 -146 106 -191 75
-283 -24 -72 -24 -73 3 -98 72 -67 148 46 135 202 -3 39 -11 76 -17 82 -5 5
-10 17 -10 25 0 9 -30 63 -66 121 -87 137 -121 214 -144 319 -30 135 -34 177
-32 311 4 353 119 562 311 564 139 0 245 -121 291 -332 26 -117 28 -330 5
-461 -28 -164 -52 -222 -173 -419 -61 -100 -84 -172 -81 -258 5 -137 85 -219
141 -144 18 25 18 27 -2 85 -14 41 -19 72 -15 98 6 42 47 128 90 191 46 68
114 211 129 272 8 32 19 74 25 92 5 18 10 36 10 39 -1 19 22 10 62 -25 122
-105 162 -125 204 -102 54 29 33 76 -68 153 -132 101 -162 157 -182 337 -3 30
-8 72 -10 93 -7 61 -44 206 -62 246 -28 60 -74 123 -125 171 -26 25 -48 53
-48 63 0 28 47 114 86 157 40 44 99 81 159 100 74 23 97 62 62 106 -18 23 -25
26 -65 20 -126 -17 -269 -132 -337 -270 -21 -42 -43 -77 -49 -77 -36 -5 -83
-3 -97 3 -9 4 -25 30 -34 57 -24 65 -108 167 -175 213 -52 35 -163 79 -199 77
-9 0 -26 -7 -38 -16z m163 -58 c111 -54 219 -186 240 -292 l6 -28 88 0 89 0 5
29 c13 61 69 156 125 209 87 83 244 153 265 118 13 -20 -4 -51 -28 -51 -40 0
-162 -68 -204 -114 -44 -48 -84 -118 -100 -179 -10 -37 -10 -38 27 -62 87 -54
166 -186 195 -325 9 -41 23 -132 31 -202 21 -193 51 -247 197 -355 48 -36 88
-71 88 -78 0 -19 -27 -38 -42 -29 -7 5 -47 34 -89 66 -82 61 -136 119 -145
156 -11 41 -21 22 -27 -50 -12 -152 -63 -292 -160 -443 -98 -152 -116 -232
-75 -326 18 -44 19 -52 6 -65 -41 -41 -83 42 -82 161 0 91 16 132 96 252 70
107 103 178 132 284 38 139 51 303 37 455 -14 148 -31 219 -72 301 -129 256
-413 257 -538 1 -105 -216 -103 -615 4 -880 13 -31 48 -96 79 -142 88 -137
116 -202 116 -282 0 -52 -25 -127 -51 -150 -18 -16 -21 -17 -36 -1 -16 15 -15
20 5 60 43 87 25 170 -71 319 -30 46 -64 102 -75 124 -31 62 -71 192 -82 269
-6 39 -13 85 -16 103 l-5 34 -32 -53 c-44 -74 -208 -206 -240 -193 -34 13 -17
42 56 96 147 112 188 178 207 338 27 231 41 291 92 393 33 66 93 136 144 167
l33 21 -20 56 c-24 71 -70 143 -117 184 -40 36 -150 89 -182 89 -23 0 -35 22
-26 46 9 24 65 12 152 -31z"/>
<path d="M1270 1492 c-18 -14 -24 -32 -28 -75 -7 -86 4 -124 39 -142 63 -33
101 9 100 112 0 50 -5 74 -19 93 -24 31 -62 37 -92 12z m69 -26 c7 -9 11 -42
9 -87 -2 -55 -7 -74 -20 -83 -13 -8 -23 -8 -35 0 -14 9 -19 28 -21 83 -3 76 6
101 38 101 10 0 23 -6 29 -14z"/>
<path d="M1576 1480 c-22 -27 -26 -41 -26 -97 0 -58 3 -67 29 -94 37 -37 55
-37 93 1 29 29 30 34 26 95 -7 112 -68 159 -122 95z m84 -26 c16 -41 12 -130
-6 -148 -22 -23 -53 -20 -63 7 -9 24 -7 140 4 157 13 21 55 11 65 -16z"/>
</g>
</svg>
